<svg xmlns="http://www.w3.org/2000/svg" version="1.1" xmlns:xlink="http://www.w3.org/1999/xlink" width="200" height="200"><svg t="1763012006630" class="icon" viewBox="0 0 1024 1024" version="1.1" xmlns="http://www.w3.org/2000/svg" p-id="3221" xmlns:xlink="http://www.w3.org/1999/xlink" width="200" height="200"><path d="M723.1488 1011.5072c-24.8832 8.0896-51.4048 12.4928-79.0528 12.4928-122.6752 0-225.0752-86.2208-250.0608-201.3184-3.8912-17.6128-5.8368-35.9424-5.8368-54.6816h-0.2048v-1.536c0-80.384-22.8352-155.3408-62.2592-218.9312-7.68-12.288-15.872-24.1664-24.7808-35.6352 8.9088-11.3664 17.2032-23.3472 24.7808-35.6352 39.5264-63.5904 62.2592-138.5472 62.2592-218.9312h0.2048V256c0-18.7392 2.048-36.9664 5.8368-54.5792C419.0208 86.2208 521.5232 0 644.096 0c26.4192 0 51.9168 3.9936 75.8784 11.4688C634.88 87.4496 581.2224 198.144 581.2224 321.3312c0 8.6016 0.3072 17.2032 0.8192 25.7024h-0.1024c0.1024 2.6624 0.2048 5.3248 0.2048 8.0896 0 50.9952-24.3712 96.256-61.952 124.928-26.3168 20.0704-59.1872 31.9488-94.8224 31.9488h-0.2048c35.6352 0 68.608 11.8784 94.9248 32.0512 37.5808 28.672 61.8496 73.9328 61.8496 124.8256 0 2.6624 0 5.4272-0.2048 8.0896h0.1024c-0.4096 7.2704-0.6144 14.5408-0.6144 21.8112 0 124.8256 54.9888 236.6464 141.9264 312.7296z" fill="#006EFF" p-id="3222"></path></svg><style>@media (prefers-color-scheme: light) { :root { filter: none; } }
@media (prefers-color-scheme: dark) { :root { filter: none; } }
</style></svg>